<svg xmlns="http://www.w3.org/2000/svg" width="256" height="64">
  
  <!-- Wooden Dock -->
  <rect x="0" y="32" width="256" height="32" fill="#A0522D" />
  <!-- Planks -->
  <line x1="0" y1="32" x2="0" y2="64" stroke="#8B4513" stroke-width="2" />
<line x1="16" y1="32" x2="16" y2="64" stroke="#8B4513" stroke-width="2" />
<line x1="32" y1="32" x2="32" y2="64" stroke="#8B4513" stroke-width="2" />
<line x1="48" y1="32" x2="48" y2="64" stroke="#8B4513" stroke-width="2" />
<line x1="64" y1="32" x2="64" y2="64" stroke="#8B4513" stroke-width="2" />
<line x1="80" y1="32" x2="80" y2="64" stroke="#8B4513" stroke-width="2" />
<line x1="96" y1="32" x2="96" y2="64" stroke="#8B4513" stroke-width="2" />
<line x1="112" y1="32" x2="112" y2="64" stroke="#8B4513" stroke-width="2" />
<line x1="128" y1="32" x2="128" y2="64" stroke="#8B4513" stroke-width="2" />
<line x1="144" y1="32" x2="144" y2="64" stroke="#8B4513" stroke-width="2" />
<line x1="160" y1="32" x2="160" y2="64" stroke="#8B4513" stroke-width="2" />
<line x1="176" y1="32" x2="176" y2="64" stroke="#8B4513" stroke-width="2" />
<line x1="192" y1="32" x2="192" y2="64" stroke="#8B4513" stroke-width="2" />
<line x1="208" y1="32" x2="208" y2="64" stroke="#8B4513" stroke-width="2" />
<line x1="224" y1="32" x2="224" y2="64" stroke="#8B4513" stroke-width="2" />
<line x1="240" y1="32" x2="240" y2="64" stroke="#8B4513" stroke-width="2" />
  <!-- Support Beams -->
  <rect x="0" y="64" width="8" height="32" fill="#8B4513" />
  <rect x="248" y="64" width="8" height="32" fill="#8B4513" />

</svg>