<svg xmlns="http://www.w3.org/2000/svg" width="800" height="200">
  
  <!-- Gaussian Wave -->
  <defs>
    <linearGradient id="gaussianGradient" x1="0%" y1="0%" x2="100%" y2="0%">
      <stop offset="0%" style="stop-color:#00CED1; stop-opacity:0"/>
      <stop offset="50%" style="stop-color:#00CED1; stop-opacity:1"/>
      <stop offset="100%" style="stop-color:#00CED1; stop-opacity:0"/>
    </linearGradient>
  </defs>
  <path d="M0,100 L0,99.99999099718602 L1,99.99999024834327 L2,99.99998943932505 L3,99.99998856547609 L4,99.9999876217959 L5,99.99998660291438 L6,99.9999855030658 L7,99.99998431606105 L8,99.99998303525796 L9,99.99998165352987 L10,99.99998016323185 L11,99.99997855616498 L12,99.99997682353805 L13,99.999974955927 L14,99.99997294323158 L15,99.99997077462928 L16,99.99996843852622 L17,99.99996592250511 L18,99.99996321326962 L19,99.99996029658546 L20,99.99995715721758 L21,99.99995377886354 L22,99.99995014408265 L23,99.99994623422069 L24,99.99994202933001 L25,99.99993750808473 L26,99.99993264769054 L27,99.99992742378925 L28,99.99992181035729 L29,99.99991577959828 L30,99.9999093018289 L31,99.99990234535807 L32,99.9998948763588 L33,99.99988685873252 L34,99.99987825396525 L35,99.99986902097542 L36,99.99985911595267 L37,99.9998484921873 L38,99.99983709988972 L39,99.99982488599962 L40,99.999811793984 L41,99.99979776362377 L42,99.99978273078806 L43,99.99976662719587 L44,99.99974938016418 L45,99.99973091234202 L46,99.99971114142957 L47,99.99968997988185 L48,99.9996673345958 L49,99.99964310658041 L50,99.99961719060863 L51,99.99958947485047 L52,99.99955984048617 L53,99.9995281612987 L54,99.99949430324428 L55,99.99945812400018 L56,99.99941947248858 L57,99.99937818837533 L58,99.99933410154254 L59,99.99928703153371 L60,99.99923678697016 L61,99.99918316493746 L62,99.99912595034054 L63,99.99906491522593 L64,99.99899981806979 L65,99.99893040303033 L66,99.99885639916266 L67,99.99877751959494 L68,99.99869346066373 L69,99.99860390100709 L70,99.99850850061348 L71,99.99840689982466 L72,99.99829871829067 L73,99.99818355387481 L74,99.9980609815069 L75,99.9979305519822 L76,99.99779179070427 L77,99.99764419636944 L78,99.99748723959033 L79,99.99732036145635 L80,99.99714297202867 L81,99.99695444876707 L82,99.99675413488615 L83,99.9965413376383 L84,99.9963153265207 L85,99.9960753314035 L86,99.99582054057649 L87,99.99555009871113 L88,99.99526310473526 L89,99.99495860961713 L90,99.99463561405578 L91,99.99429306607469 L92,99.99392985851524 L93,99.99354482642687 L94,99.99313674435035 L95,99.99270432349103 L96,99.99224620877824 L97,99.99176097580761 L98,99.9912471276624 L99,99.9907030916105 L100,99.99012721567307 L101,99.98951776506141 L102,99.98887291847795 L103,99.98819076427776 L104,99.98746929648655 L105,99.98670641067142 L106,99.98589989966021 L107,99.98504744910579 L108,99.98414663289108 L109,99.98319490837085 L110,99.98218961144649 L111,99.98112795146963 L112,99.98000700597058 L113,99.97882371520775 L114,99.97757487653409 L115,99.97625713857654 L116,99.97486699522479 L117,99.97340077942528 L118,99.97185465677696 L119,99.97022461892476 L120,99.96850647674759 L121,99.96669585333674 L122,99.96478817676177 L123,99.96277867262025 L124,99.96066235636808 L125,99.95843402542761 L126,99.95608825107017 L127,99.95361937007051 L128,99.95102147613053 L129,99.9482884110696 L130,99.94541375577948 L131,99.94239082094174 L132,99.93921263750566 L133,99.93587194692549 L134,99.93236119115524 L135,99.92867250240039 L136,99.92479769262555 L137,99.92072824281773 L138,99.91645529200514 L139,99.91196962603163 L140,99.90726166608763 L141,99.90232145699832 L142,99.89713865527062 L143,99.89170251690076 L144,99.8860018849446 L145,99.88002517685361 L146,99.87376037157951 L147,99.86719499645145 L148,99.86031611382978 L149,99.8531103075414 L150,99.84556366910178 L151,99.83766178372969 L152,99.82938971616116 L153,99.82073199626981 L154,99.81167260450127 L155,99.80219495713007 L156,99.79228189134848 L157,99.78191565019667 L158,99.771077867345 L159,99.75974955173979 L160,99.74791107212444 L161,99.73554214144895 L162,99.7226218011812 L163,99.7091284055348 L164,99.69503960562847 L165,99.68033233359323 L166,99.6649827866444 L167,99.64896641113621 L168,99.63225788661777 L169,99.61483110991009 L170,99.59665917922472 L171,99.5777143783455 L172,99.55796816089568 L173,99.53739113471403 L174,99.51595304636396 L175,99.49362276580113 L176,99.4703682712256 L177,99.44615663414555 L178,99.42095400468111 L179,99.39472559713671 L180,99.36743567587253 L181,99.33904754150558 L182,99.3095235174725 L183,99.27882493698674 L184,99.24691213042387 L185,99.21374441316962 L186,99.17928007396611 L187,99.1434763637925 L188,99.10628948531753 L189,99.06767458296149 L190,99.0275857336068 L191,98.98597593799656 L192,98.94279711286121 L193,98.89800008381464 L194,98.85153457906083 L195,98.8033492239538 L196,98.75339153645324 L197,98.70160792351942 L198,98.64794367849112 L199,98.5923429794907 L200,98.53474888890126 L201,98.4751033539604 L202,98.41334720851611 L203,98.34942017599002 L204,98.28326087359356 L205,98.21480681784269 L206,98.14399443141652 L207,98.07075905140567 L208,97.9950349389953 L209,97.9167552906281 L210,97.83585225069197 L211,97.75225692577655 L212,97.66589940054264 L213,97.5767087552475 L214,97.4846130849687 L215,97.38953952056832 L216,97.29141425143816 L217,97.19016255006599 L218,97.08570879846168 L219,96.97797651648064 L220,96.86688839208104 L221,96.75236631354959 L222,96.63433140372942 L223,96.5127040562817 L224,96.38740397401112 L225,96.25835020928328 L226,96.12546120656046 L227,95.98865484707977 L228,95.84784849569557 L229,95.70295904990611 L230,95.55390299108136 L231,95.40059643790683 L232,95.24295520205574 L233,95.08089484609839 L234,94.91433074365564 L235,94.74317814179977 L236,94.56735222570325 L237,94.38676818553255 L238,94.20134128558108 L239,94.01098693563172 L240,93.81562076453602 L241,93.61515869599363 L242,93.40951702651171 L243,93.19861250552039 L244,92.98236241761661 L245,92.76068466690433 L246,92.5334978633958 L247,92.30072141143377 L248,92.06227560009094 L249,91.8180816954984 L250,91.56806203505086 L251,91.31214012343176 L252,91.05024073039775 L253,90.78228999025652 L254,90.50821550296895 L255,90.2279464368008 L256,89.94141363244577 L257,89.64854970853669 L258,89.34928916845746 L259,89.04356850836373 L260,88.73132632631639 L261,88.41250343242663 L262,88.08704295990817 L263,87.7548904769271 L264,87.4159940991357 L265,87.07030460277286 L266,86.71777553820907 L267,86.35836334381028 L268,85.99202745999094 L269,85.61873044332258 L270,85.23843808056085 L271,84.85111950245008 L272,84.45674729716094 L273,84.05529762321419 L274,83.64675032173888 L275,83.23108902791218 L276,82.80830128142357 L277,82.37837863580467 L278,81.94131676646265 L279,81.49711557725371 L280,81.04577930543026 L281,80.58731662479434 L282,80.12174074688767 L283,79.64906952004769 L284,79.16932552615768 L285,78.68253617491807 L286,78.18873379546585 L287,77.68795572516801 L288,77.18024439541558 L289,76.66564741424429 L290,76.14421764560902 L291,75.61601328513973 L292,75.08109793220743 L293,74.53954065813033 L294,73.99141607035233 L295,73.43680437242715 L296,72.87579141964463 L297,72.30846877013771 L298,71.73493373131188 L299,71.15528940144195 L300,70.5696447062846 L301,69.97811443055942 L302,69.38081924415448 L303,68.77788572291831 L304,68.16944636390363 L305,67.55563959493435 L306,66.93660977837246 L307,66.31250720896705 L308,65.68348810567416 L309,65.04971459734222 L310,64.41135470216472 L311,63.768582300808426 L312,63.12157710313331 L313,62.47052460842687 L314,61.815616059084334 L315,61.15704838767364 L316,60.4950241573323 L317,59.82975149545225 L318,59.161444020616855 L319,58.490320762763815 L320,57.81660607655611 L321,57.14052954795322 L322,56.46232589398341 L323,55.78223485572849 L324,55.10050108454121 L325,54.41737402152616 L326,53.73310777032447 L327,53.04796096325296 L328,52.36219662085841 L329,51.676082004957976 L330,50.98988846524671 L331,50.303891279563935 L332,49.61836948791975 L333,48.933605720394 L334,48.24988601902962 L335,47.56749965385276 L336,46.88673893316212 L337,46.207899008239785 L338,45.53127767264602 L339,44.85717515626989 L340,44.18589391431752 L341,43.51773841142883 L342,42.8530149011234 L343,42.192031200784506 L344,41.53509646239969 L345,40.88252093928446 L346,40.23461574902434 L347,39.59169263287812 L348,38.95406371189311 L349,38.32204123999077 L350,37.69593735428761 L351,37.0760638229236 L352,36.462731790676266 L353,35.8562515226447 L354,35.25693214629344 L355,34.66508139215114 L356,34.081005333463736 L357,33.50500812510633 L358,32.93739174206132 L359,32.378455717774514 L360,31.828496882703092 L361,31.287809103372197 L362,30.756683022258727 L363,30.23540579882247 L364,29.7242608520055 L365,29.22352760452131 L366,28.73348122925529 L367,28.254392398097053 L368,27.786527033524635 L369,27.330146063258553 L370,26.88550517830174 L371,26.45285459467854 L372,26.03243881918314 L373,25.62449641944366 L374,25.229259798604105 L375,24.846954974921942 L376,24.477801366573146 L377,24.122011581951625 L378,23.779791215743117 L379,23.451338651047223 L380,23.136844867814148 L381,22.83649325785477 L382,22.550459446674978 L383,22.278911122376343 L384,22.022007871856488 L385,21.77990102453309 L386,21.552733503805726 L387,21.340639686459568 L388,21.143745270204562 L389,20.962167149532945 L390,20.796013300066548 L391,20.6453826715543 L392,20.510365089668085 L393,20.391041166733615 L394,20.287482221520534 L395,20.1997502082032 L396,20.127897654591493 L397,20.071967609717817 L398,20.03199360085324 L399,20.007999600013335 L400,20 L401,20.007999600013335 L402,20.03199360085324 L403,20.071967609717817 L404,20.127897654591493 L405,20.1997502082032 L406,20.287482221520534 L407,20.391041166733615 L408,20.510365089668085 L409,20.6453826715543 L410,20.796013300066548 L411,20.962167149532945 L412,21.143745270204562 L413,21.340639686459568 L414,21.552733503805726 L415,21.77990102453309 L416,22.022007871856488 L417,22.278911122376343 L418,22.550459446674978 L419,22.83649325785477 L420,23.136844867814148 L421,23.451338651047223 L422,23.779791215743117 L423,24.122011581951625 L424,24.477801366573146 L425,24.846954974921942 L426,25.229259798604105 L427,25.62449641944366 L428,26.03243881918314 L429,26.45285459467854 L430,26.88550517830174 L431,27.330146063258553 L432,27.786527033524635 L433,28.254392398097053 L434,28.73348122925529 L435,29.22352760452131 L436,29.7242608520055 L437,30.23540579882247 L438,30.756683022258727 L439,31.287809103372197 L440,31.828496882703092 L441,32.378455717774514 L442,32.93739174206132 L443,33.50500812510633 L444,34.081005333463736 L445,34.66508139215114 L446,35.25693214629344 L447,35.8562515226447 L448,36.462731790676266 L449,37.0760638229236 L450,37.69593735428761 L451,38.32204123999077 L452,38.95406371189311 L453,39.59169263287812 L454,40.23461574902434 L455,40.88252093928446 L456,41.53509646239969 L457,42.192031200784506 L458,42.8530149011234 L459,43.51773841142883 L460,44.18589391431752 L461,44.85717515626989 L462,45.53127767264602 L463,46.207899008239785 L464,46.88673893316212 L465,47.56749965385276 L466,48.24988601902962 L467,48.933605720394 L468,49.61836948791975 L469,50.303891279563935 L470,50.98988846524671 L471,51.676082004957976 L472,52.36219662085841 L473,53.04796096325296 L474,53.73310777032447 L475,54.41737402152616 L476,55.10050108454121 L477,55.78223485572849 L478,56.46232589398341 L479,57.14052954795322 L480,57.81660607655611 L481,58.490320762763815 L482,59.161444020616855 L483,59.82975149545225 L484,60.4950241573323 L485,61.15704838767364 L486,61.815616059084334 L487,62.47052460842687 L488,63.12157710313331 L489,63.768582300808426 L490,64.41135470216472 L491,65.04971459734222 L492,65.68348810567416 L493,66.31250720896705 L494,66.93660977837246 L495,67.55563959493435 L496,68.16944636390363 L497,68.77788572291831 L498,69.38081924415448 L499,69.97811443055942 L500,70.5696447062846 L501,71.15528940144195 L502,71.73493373131188 L503,72.30846877013771 L504,72.87579141964463 L505,73.43680437242715 L506,73.99141607035233 L507,74.53954065813033 L508,75.08109793220743 L509,75.61601328513973 L510,76.14421764560902 L511,76.66564741424429 L512,77.18024439541558 L513,77.68795572516801 L514,78.18873379546585 L515,78.68253617491807 L516,79.16932552615768 L517,79.64906952004769 L518,80.12174074688767 L519,80.58731662479434 L520,81.04577930543026 L521,81.49711557725371 L522,81.94131676646265 L523,82.37837863580467 L524,82.80830128142357 L525,83.23108902791218 L526,83.64675032173888 L527,84.05529762321419 L528,84.45674729716094 L529,84.85111950245008 L530,85.23843808056085 L531,85.61873044332258 L532,85.99202745999094 L533,86.35836334381028 L534,86.71777553820907 L535,87.07030460277286 L536,87.4159940991357 L537,87.7548904769271 L538,88.08704295990817 L539,88.41250343242663 L540,88.73132632631639 L541,89.04356850836373 L542,89.34928916845746 L543,89.64854970853669 L544,89.94141363244577 L545,90.2279464368008 L546,90.50821550296895 L547,90.78228999025652 L548,91.05024073039775 L549,91.31214012343176 L550,91.56806203505086 L551,91.8180816954984 L552,92.06227560009094 L553,92.30072141143377 L554,92.5334978633958 L555,92.76068466690433 L556,92.98236241761661 L557,93.19861250552039 L558,93.40951702651171 L559,93.61515869599363 L560,93.81562076453602 L561,94.01098693563172 L562,94.20134128558108 L563,94.38676818553255 L564,94.56735222570325 L565,94.74317814179977 L566,94.91433074365564 L567,95.08089484609839 L568,95.24295520205574 L569,95.40059643790683 L570,95.55390299108136 L571,95.70295904990611 L572,95.84784849569557 L573,95.98865484707977 L574,96.12546120656046 L575,96.25835020928328 L576,96.38740397401112 L577,96.5127040562817 L578,96.63433140372942 L579,96.75236631354959 L580,96.86688839208104 L581,96.97797651648064 L582,97.08570879846168 L583,97.19016255006599 L584,97.29141425143816 L585,97.38953952056832 L586,97.4846130849687 L587,97.5767087552475 L588,97.66589940054264 L589,97.75225692577655 L590,97.83585225069197 L591,97.9167552906281 L592,97.9950349389953 L593,98.07075905140567 L594,98.14399443141652 L595,98.21480681784269 L596,98.28326087359356 L597,98.34942017599002 L598,98.41334720851611 L599,98.4751033539604 L600,98.53474888890126 L601,98.5923429794907 L602,98.64794367849112 L603,98.70160792351942 L604,98.75339153645324 L605,98.8033492239538 L606,98.85153457906083 L607,98.89800008381464 L608,98.94279711286121 L609,98.98597593799656 L610,99.0275857336068 L611,99.06767458296149 L612,99.10628948531753 L613,99.1434763637925 L614,99.17928007396611 L615,99.21374441316962 L616,99.24691213042387 L617,99.27882493698674 L618,99.3095235174725 L619,99.33904754150558 L620,99.36743567587253 L621,99.39472559713671 L622,99.42095400468111 L623,99.44615663414555 L624,99.4703682712256 L625,99.49362276580113 L626,99.51595304636396 L627,99.53739113471403 L628,99.55796816089568 L629,99.5777143783455 L630,99.59665917922472 L631,99.61483110991009 L632,99.63225788661777 L633,99.64896641113621 L634,99.6649827866444 L635,99.68033233359323 L636,99.69503960562847 L637,99.7091284055348 L638,99.7226218011812 L639,99.73554214144895 L640,99.74791107212444 L641,99.75974955173979 L642,99.771077867345 L643,99.78191565019667 L644,99.79228189134848 L645,99.80219495713007 L646,99.81167260450127 L647,99.82073199626981 L648,99.82938971616116 L649,99.83766178372969 L650,99.84556366910178 L651,99.8531103075414 L652,99.86031611382978 L653,99.86719499645145 L654,99.87376037157951 L655,99.88002517685361 L656,99.8860018849446 L657,99.89170251690076 L658,99.89713865527062 L659,99.90232145699832 L660,99.90726166608763 L661,99.91196962603163 L662,99.91645529200514 L663,99.92072824281773 L664,99.92479769262555 L665,99.92867250240039 L666,99.93236119115524 L667,99.93587194692549 L668,99.93921263750566 L669,99.94239082094174 L670,99.94541375577948 L671,99.9482884110696 L672,99.95102147613053 L673,99.95361937007051 L674,99.95608825107017 L675,99.95843402542761 L676,99.96066235636808 L677,99.96277867262025 L678,99.96478817676177 L679,99.96669585333674 L680,99.96850647674759 L681,99.97022461892476 L682,99.97185465677696 L683,99.97340077942528 L684,99.97486699522479 L685,99.97625713857654 L686,99.97757487653409 L687,99.97882371520775 L688,99.98000700597058 L689,99.98112795146963 L690,99.98218961144649 L691,99.98319490837085 L692,99.98414663289108 L693,99.98504744910579 L694,99.98589989966021 L695,99.98670641067142 L696,99.98746929648655 L697,99.98819076427776 L698,99.98887291847795 L699,99.98951776506141 L700,99.99012721567307 L701,99.9907030916105 L702,99.9912471276624 L703,99.99176097580761 L704,99.99224620877824 L705,99.99270432349103 L706,99.99313674435035 L707,99.99354482642687 L708,99.99392985851524 L709,99.99429306607469 L710,99.99463561405578 L711,99.99495860961713 L712,99.99526310473526 L713,99.99555009871113 L714,99.99582054057649 L715,99.9960753314035 L716,99.9963153265207 L717,99.9965413376383 L718,99.99675413488615 L719,99.99695444876707 L720,99.99714297202867 L721,99.99732036145635 L722,99.99748723959033 L723,99.99764419636944 L724,99.99779179070427 L725,99.9979305519822 L726,99.9980609815069 L727,99.99818355387481 L728,99.99829871829067 L729,99.99840689982466 L730,99.99850850061348 L731,99.99860390100709 L732,99.99869346066373 L733,99.99877751959494 L734,99.99885639916266 L735,99.99893040303033 L736,99.99899981806979 L737,99.99906491522593 L738,99.99912595034054 L739,99.99918316493746 L740,99.99923678697016 L741,99.99928703153371 L742,99.99933410154254 L743,99.99937818837533 L744,99.99941947248858 L745,99.99945812400018 L746,99.99949430324428 L747,99.9995281612987 L748,99.99955984048617 L749,99.99958947485047 L750,99.99961719060863 L751,99.99964310658041 L752,99.9996673345958 L753,99.99968997988185 L754,99.99971114142957 L755,99.99973091234202 L756,99.99974938016418 L757,99.99976662719587 L758,99.99978273078806 L759,99.99979776362377 L760,99.999811793984 L761,99.99982488599962 L762,99.99983709988972 L763,99.9998484921873 L764,99.99985911595267 L765,99.99986902097542 L766,99.99987825396525 L767,99.99988685873252 L768,99.9998948763588 L769,99.99990234535807 L770,99.9999093018289 L771,99.99991577959828 L772,99.99992181035729 L773,99.99992742378925 L774,99.99993264769054 L775,99.99993750808473 L776,99.99994202933001 L777,99.99994623422069 L778,99.99995014408265 L779,99.99995377886354 L780,99.99995715721758 L781,99.99996029658546 L782,99.99996321326962 L783,99.99996592250511 L784,99.99996843852622 L785,99.99997077462928 L786,99.99997294323158 L787,99.999974955927 L788,99.99997682353805 L789,99.99997855616498 L790,99.99998016323185 L791,99.99998165352987 L792,99.99998303525796 L793,99.99998431606105 L794,99.9999855030658 L795,99.99998660291438 L796,99.9999876217959 L797,99.99998856547609 L798,99.99998943932505 L799,99.99999024834327 L800,99.99999099718602" fill="none" stroke="url(#gaussianGradient)" stroke-width="2"/>

</svg>