<svg xmlns="http://www.w3.org/2000/svg" width="48" height="48">
  
  <!-- Data Collection Minion - Evil Robot Design -->
  <defs>
    <linearGradient id="minionGlow" x1="0%" y1="0%" x2="0%" y2="100%">
      <stop offset="0%" style="stop-color:#FF10F0;stop-opacity:0.8"/>
      <stop offset="100%" style="stop-color:#00FFFF;stop-opacity:0.8"/>
    </linearGradient>
  </defs>
  
  <!-- Robot Head -->
  <path d="M18,12 L30,12 L32,16 L30,20 L18,20 L16,16 Z" 
        fill="#291D54" stroke="#FF10F0" stroke-width="1"/>
  
  <!-- Evil Glowing Eyes -->
  <circle cx="22" cy="16" r="2" fill="#FF0000">
    <animate attributeName="opacity" values="1;0.5;1" dur="1s" repeatCount="indefinite"/>
  </circle>
  <circle cx="26" cy="16" r="2" fill="#FF0000">
    <animate attributeName="opacity" values="1;0.5;1" dur="1s" repeatCount="indefinite"/>
  </circle>
  
  <!-- Robot Body -->
  <path d="M20,20 L28,20 L32,36 L16,36 Z" 
        fill="#291D54" stroke="#FF10F0" stroke-width="1"/>
  
  <!-- Antenna -->
  <line x1="24" y1="8" x2="24" y2="12" stroke="#FF10F0" stroke-width="2"/>
  <circle cx="24" cy="8" r="2" fill="#FF10F0"/>
  
  <!-- Arms -->
  <path d="M16,24 L12,28 L12,32 L14,34" stroke="#FF10F0" stroke-width="2" fill="none"/>
  <path d="M32,24 L36,28 L36,32 L34,34" stroke="#FF10F0" stroke-width="2" fill="none"/>
  
  <!-- Matrix Core -->
  <rect x="22" y="24" width="4" height="8" fill="#00FFFF" opacity="0.8"/>
  <text x="24" y="30" font-family="monospace" fill="#000" font-size="6" text-anchor="middle">01</text>
  
  <!-- Energy Field -->
  <circle cx="24" cy="24" r="16" fill="none" stroke="#FF10F0" stroke-width="1" stroke-dasharray="2,2">
    <animateTransform attributeName="transform" type="rotate"
      from="0 24 24" to="360 24 24" dur="6s" repeatCount="indefinite"/>
  </circle>

</svg>