<svg xmlns="http://www.w3.org/2000/svg" width="32" height="48">
  
  <!-- Pixel Art Player Character -->
  <!-- Standing Frame -->
  <g id="standing">
    <!-- Trench Coat -->
    <rect x="12" y="24" width="8" height="20" fill="#D4C4A8" />
    <rect x="11" y="24" width="10" height="4" fill="#BEB19A" />
    
    <!-- Suit -->
    <rect x="13" y="20" width="6" height="8" fill="#2F2F2F" />
    
    <!-- Head -->
    <rect x="13" y="16" width="6" height="6" fill="#E6D5C1" />
    
    <!-- Sunglasses -->
    <rect x="13" y="18" width="6" height="2" fill="#000000" />
    
    <!-- Hair -->
    <rect x="13" y="16" width="6" height="2" fill="#4A3C31" />
    
    <!-- Shoes -->
    <rect x="12" y="44" width="4" height="2" fill="#000000" />
  </g>

  <!-- Running Frame 1 -->
  <g id="run1" visibility="hidden">
    <!-- Trench Coat -->
    <rect x="12" y="24" width="8" height="18" fill="#D4C4A8" />
    <rect x="11" y="24" width="10" height="4" fill="#BEB19A" />
    
    <!-- Legs -->
    <rect x="12" y="42" width="3" height="4" fill="#2F2F2F" />
    <rect x="17" y="42" width="3" height="4" fill="#2F2F2F" />
    
    <!-- Same upper body as standing -->
    <rect x="13" y="20" width="6" height="8" fill="#2F2F2F" />
    <rect x="13" y="16" width="6" height="6" fill="#E6D5C1" />
    <rect x="13" y="18" width="6" height="2" fill="#000000" />
    <rect x="13" y="16" width="6" height="2" fill="#4A3C31" />
  </g>

  <!-- Running Frame 2 -->
  <g id="run2" visibility="hidden">
    <!-- Trench Coat -->
    <rect x="12" y="24" width="8" height="18" fill="#D4C4A8" />
    <rect x="11" y="24" width="10" height="4" fill="#BEB19A" />
    
    <!-- Legs -->
    <rect x="14" y="42" width="3" height="4" fill="#2F2F2F" />
    <rect x="15" y="42" width="3" height="4" fill="#2F2F2F" />
    
    <!-- Same upper body as standing -->
    <rect x="13" y="20" width="6" height="8" fill="#2F2F2F" />
    <rect x="13" y="16" width="6" height="6" fill="#E6D5C1" />
    <rect x="13" y="18" width="6" height="2" fill="#000000" />
    <rect x="13" y="16" width="6" height="2" fill="#4A3C31" />
  </g>

  <!-- Animation -->
  <style>
    @keyframes run {
      0% { visibility: visible; }
      33% { visibility: hidden; }
      66% { visibility: hidden; }
      100% { visibility: visible; }
    }
    #run1 {
      animation: run 0.3s steps(1) infinite;
    }
    #run2 {
      animation: run 0.3s steps(1) infinite;
      animation-delay: 0.15s;
    }
  </style>

</svg>